<svg xmlns="http://www.w3.org/2000/svg" width="1000" height="1000" shape-rendering="geometricPrecision" image-rendering="optimizeQuality" fill-rule="evenodd" xmlns:v="https://vecta.io/nano"><path d="M-.06 482.48c0 75.4 4.14 116.28 28.54 186.3 11.64 33.4 22.26 52.51 38.53 82.57 3.77 6.97 7.25 11.62 11.15 18.15 16.03 26.84 46.39 63.17 67.78 84.56 20.26 20.27 41.54 37.72 64.93 54.22 29.34 20.7 43.49 28.84 76.15 44.93 46.26 22.79 126.54 46.85 195.34 46.85h2.65c55.14-.01 81.53-.51 137.22-14.43 16.81-4.2 30.74-8.64 46.44-14.11 64.07-22.33 103.38-49.98 153.54-88.65 100.18-77.21 177.73-233.78 177.73-365.23 0-90.19-10.64-155.14-46.2-229.2-54.08-112.65-130.49-185.77-240.9-241.52C660.04 20.26 577.42.06 517.52.06c-75.28 0-116.36 4.16-186.3 28.54-13.94 4.86-30.25 11.3-42.88 17.67-25.78 12.99-53.18 27.48-76.64 44.45C114.14 161.3 44.58 258.8 14.76 376.2 7.09 406.4-.06 446.14-.06 482.48zm449.3-204.27c0-28 22.7-50.71 50.7-50.71s50.71 22.71 50.71 50.71v159.21c0 28-22.71 50.71-50.71 50.71s-50.7-22.71-50.7-50.71V278.21zM497 772.97c-136.93-1.69-247.1-113.21-247.1-250.16 0-72.76 31.74-141.97 86.81-189.46 22.94-19.82 58.64-10.94 70.16 17.1a45.17 45.17 0 0 1 3.29 16.91c0 13.07-5.7 25.5-15.6 34.02-35.2 30.56-55.44 74.94-55.44 121.56 0 88.9 72.09 160.99 160.99 160.99S661.1 611.84 661.1 522.94c0-46.76-20.35-91.26-55.72-121.82-9.76-8.45-15.38-20.74-15.38-33.65 0-5.84 1.16-11.63 3.38-17.02a44.71 44.71 0 0 1 41.33-27.68c10.68 0 21.01 3.83 29.11 10.78a250.3 250.3 0 0 1 86.53 189.24c0 138.16-112.04 250.2-250.2 250.2-1.04 0-2.14-.03-3.14-.03l-.01.01z"/></svg>